<?xml version="1.0" encoding="utf-8"?>
<!-- Generator: Adobe Illustrator 27.9.0, SVG Export Plug-In . SVG Version: 6.00 Build 0)  -->
<svg version="1.1" id="Calque_1" xmlns="http://www.w3.org/2000/svg" xmlns:xlink="http://www.w3.org/1999/xlink" x="0px" y="0px"
	 viewBox="0 0 1920 1080" style="enable-background:new 0 0 1920 1080;" xml:space="preserve">
<g>
	<path d="M1127.5,453.34c-100.21,5.09-200.33,7.24-300.56,4.74c117.4-16.7,235.54-24.99,353.91-30.69c0.1-0.41,0.2-0.83,0.3-1.24
		c-37.47-16.55-74.93-33.1-112.4-49.64c0.12-0.42,0.23-0.83,0.35-1.25c7.27,1.25,14.6,2.21,21.79,3.82
		c24.93,5.58,48.61,15.04,72.53,23.74c22.16,8.05,44.54,15.31,68.02,18.47c18.12,2.43,36.14,2.43,53.97-2.22
		c0.82-0.21,1.62-0.49,3.38-1.03c-3.27-1.29-5.71-2.37-8.23-3.22c-37.43-12.69-74.93-25.14-113.07-35.57
		c-29.83-8.16-59.94-15-90.52-19.71c-34.78-5.36-69.7-7.77-104.87-5.52c-43.9,2.81-86.47,12-127.86,26.79
		c-46.08,16.46-89.39,38.5-130.58,64.78c-11.32,7.22-22.59,14.54-33.69,22.1c-14.75,10.05-30.76,12.16-47.95,8.68
		c-16.28-3.3-32.52-7.05-48.96-9.29c-34.86-4.76-69.1-0.63-102.77,9.16c-33.93,9.86-64.45,26.14-91.84,48.38
		c-1.06,0.86-2.24,1.6-3.89,1.94c1.01-1.19,1.93-2.46,3.05-3.54c23.69-23.05,50.43-41.52,81.03-54.33
		c37.32-15.62,76.18-22.81,116.59-22.09c11.28,0.2,22.63,0.8,33.84-0.07c18.22-1.41,35-7.92,50.96-16.67
		c33.53-18.38,66.55-37.73,101.55-53.33c45.56-20.31,93.04-33.12,142.77-37.58c40.01-3.59,79.9-2.32,119.72,2.44
		c59.47,7.11,117.3,21.48,174.31,39.45c28.85,9.1,57.55,18.68,86.49,27.49c35.01,10.65,70.67,17.83,107.49,17.71
		c22.58-0.07,44.86-2.67,66.96-7.31c5.13-1.08,10.59-1.19,15.85-0.91c7.72,0.41,11.29,7.18,7.65,14.02c-1.33,2.51-3.1,4.89-5.1,6.91
		c-10.12,10.23-14.65,22.75-15.6,36.83c-1.01,15.09,2.14,29.66,5.3,44.27c3.03,14.03,6.56,27.98,6.41,42.54
		c-0.39,38.41-30.89,75.34-68.65,82.64c-3.19,0.62-6.58,0.72-9.83,0.44c-4.14-0.36-6.69-3.23-6.34-7.38
		c0.31-3.65,1.24-7.34,2.45-10.82c11.21-32.21,7.83-62.79-11.57-90.78c-21.28-30.69-51.73-44.02-88.61-42.9
		c-24.36,0.74-45.72,9.8-63.89,25.89c-16.35,14.48-27.23,32.58-33.44,53.5c-0.54,1.83-1.14,3.65-1.73,5.46
		c-0.05,0.17-0.3,0.27-0.46,0.4c8.08-59.18,57.34-96.33,112.22-96.1c36.05,0.15,64.61,17.47,86.75,44.96
		c22.72,28.23,25.11,61.23,19.27,96.25c2.15-0.44,3.78-0.62,5.31-1.1c13.13-4.14,21.73-13.42,28.09-25.12
		c7.78-14.3,9.59-29.67,7.5-45.58c-2.21-16.9-4.88-33.73-6.98-50.64c-1.95-15.77-1.93-31.51,3.45-46.76
		c1.37-3.89,3.18-7.69,5.26-11.26c2.08-3.56,4.74-6.79,7.63-10.83c-19.64-3.05-38.78-1.73-58.07,2.25
		c8.3,5.22,16.61,10.44,24.91,15.66c-0.1,0.24-0.2,0.47-0.31,0.71c-0.9-0.15-1.85-0.15-2.69-0.47
		c-24.34-9.31-49.7-11.39-75.47-10.82c-26.72,0.59-53.09,4.46-79.48,8.16c-24.08,3.37-48.03,7.42-71.49,13.95
		c-27.81,7.74-54.24,18.48-77.25,36.44c-14.76,11.53-26.71,25.61-37.89,40.5c-9.59,12.77-19.14,25.64-29.58,37.71
		c-20.7,23.95-47.46,38.07-77.91,45.63c-25.67,6.37-51.83,8.63-78.1,6.55c-27.4-2.17-54.71-5.58-82.02-8.77
		c-24.66-2.88-49.24-6.51-74.11-7.39c-3.08-0.11-6.15-0.47-9.36-1.16c1.12-0.39,2.22-0.88,3.37-1.17
		c23.95-5.88,48.32-7.85,72.93-8.19c33.37-0.46,66.78-0.53,100.08-2.4c28.58-1.61,56.21-8.53,81.82-22.06
		c18.89-9.98,34.21-23.98,47.21-40.84c15.22-19.75,30.71-39.29,46.41-58.66c8.79-10.84,19.91-18.87,32.9-24.19
		C1126.62,453.87,1127.05,453.58,1127.5,453.34z"/>
	<path d="M629.97,599.33c-0.45-1.21-1.03-2.39-1.34-3.64c-4.99-19.95-13.34-38.23-27.55-53.35c-16.89-17.96-36.69-31.22-61.6-35.08
		c-28.11-4.37-53.07,3.36-74.78,21.31c-19.75,16.33-30.98,37.57-34.51,62.92c-0.36,2.59-0.86,5.17-1.29,7.75
		c-0.31,0.03-0.62,0.06-0.93,0.09c-0.36-1.56-1.03-3.11-1.03-4.67c-0.07-52.41,37.87-96.5,89.94-103.68
		c25.57-3.53,50.55-0.53,72.56,14c29.58,19.52,44.69,47.22,43.61,83.09c-0.08,2.55-0.46,5.09-0.89,7.61
		c-0.21,1.25-0.84,2.44-1.28,3.65C630.57,599.34,630.27,599.34,629.97,599.33z"/>
</g>
</svg>
